<svg id="레이어_1" data-name="레이어 1" xmlns="http://www.w3.org/2000/svg" viewBox="0 0 500 500"><defs><style>.cls-1{fill:#3c5fb5;}</style></defs><path class="cls-1" d="M465.53,184.72c-10.29-3.12-40.44-.25-47,.37-5,.64-36.52,12.47-42.32,11.41-6.84.39-9.8-3-9.52-9.66h0c-1-4.94,11.75-38.46,14.47-46.91,1.65-7.65,6.51-25.49,6.57-26.92,0-.16,2.06-8.32-.06-12.24-.26-.25-2.67-8-6.82-13.25-5.3-1.11-17,14.84-16.14,21.54-.18,1.8-3.55,11.2-5.06,14.1-3,7.71-9.3,30.06-9.49,33.65-1.86,2.78-6.46,26.07-8.35,31.08.21,3.2-3.28,14.89-3.65,18a5.61,5.61,0,0,0-2.12.75c-1,1.14-35.17,15.77-52.38,18.3h0c-4.39-1.36-18.35-73.48-18.35-73.48-1.77-2.17-19.14-13.53-25.68-5.81a32.07,32.07,0,0,0-1.78,5.05c-1.49,5.8,17.26,83.64,16.48,83.61-14.76,2.09-28,10-43.69,12.29,1.45-16,12.73-73.59,12.4-86.88-.14-3.62-11.06-6.63-10.53-2.73-6.09,3.9-33.37,94.16-33.42,101.36-2,2.82-26.87,16.18-37.45,19.48-6.17-2.05-13.64-28.7-14.14-30.62-.3-.7-4.72-13.73-5.82-16.21C114,213.83,111,193.06,88.13,187.74c-6.84.78-3.79,5-3,8.48,2,9.12,3.69,18.31,6,27.33,5.6,21.44,11.79,42.7,21.08,62.91-.7.91-62.93,31.55-83.56,44.93-5.87,3.82-4.6,8.72-2.2,13.79.6,3.58,9.56,15.17,13.47,16.52,10.11,1.9,75.62-40.47,79.66-43.28,1.44,3.49,36.66,71.38,36.75,71.53,2.86,4.37,4.25,9.61,8,13.42a15.08,15.08,0,0,0,6,2,43.31,43.31,0,0,0,13.1-.66c8.79-2,9.34-9.7,11.21-16.42,1.42-6.69.41-13.44.41-20.16,0-2.31,1.49-65.55,1.69-66.91.16-4.8.71-9.48,3.3-13.67,1.62-3.6,22.27-10.82,29.65-13.22,11-3.55,20.78-11,33.2-9.38.21-.06,12.42,42.27,13,48.47,3.46,10.94,15.58,53.41,18.17,58.33,3.64,6.9,2.45,16.64,11.88,20.11.59.16,25.39-2.25,27.29-4.15h0l0-2.63A94.57,94.57,0,0,1,335.72,367s8.65-42.89,9.12-50.71c.68-11.5,9.83-70.75,12.9-85.68-.17-1.12,94.4-29.45,102.63-29,6.12-2,11.17-5.34,14.55-10.94C475.84,188.54,468.27,184.86,465.53,184.72ZM159.39,301.25c7-3.17,9.6-.92,8.11,6.4-1.75,8.64-1.4,17.39-1.52,26.11,0,.5-1,4.54-.3,6.71-7.47-10.88-20.83-35.07-20.78-35.12S155.21,303.15,159.39,301.25Zm118-75.05a.09.09,0,0,1,0,0h.07Zm-37-75c.12,0,.25.08.37.12l-.39.44C240.43,151.55,240.43,151.37,240.44,151.18Zm49,103.68c8-.27,15.48-2.88,23.06-5.22,11.72-3.63,12.8-2.5,11.22,10.09-2.74,21.75-9.29,42.87-11.08,64.78-.48-.54-2.32-2.06-2.26-2.46-1.47-15.6-8.52-29.48-13.81-43.8C293.63,270.23,288.62,254.78,289.47,254.86Z"/></svg>