<?xml version="1.0" encoding="utf-8"?>
<!-- Generator: Adobe Illustrator 25.3.1, SVG Export Plug-In . SVG Version: 6.00 Build 0)  -->
<svg version="1.1" id="레이어_1" xmlns="http://www.w3.org/2000/svg" xmlns:xlink="http://www.w3.org/1999/xlink" x="0px"
	 y="0px" viewBox="0 0 500 500" style="enable-background:new 0 0 500 500;" xml:space="preserve">
<style type="text/css">
	.st0{fill:#474747;}
	.st1{fill:#FFFFFF;}
</style>
<g>
	<circle class="st0" cx="250" cy="250" r="145.4"/>
	<g>
		<path class="st1" d="M240.9,255.6h-42.5c-5.6,0-7.6-2-7.6-7.1v-9.1h49.6v-48.1h18.7v48.1h49.6v16.7h-49.6v45.6
			c0,5.6-2.5,8.1-7.6,8.1h-10.6V255.6z"/>
	</g>
</g>
<g>
	<g>
		<circle class="st0" cx="250" cy="250" r="145.4"/>
	</g>
	<path class="st1" d="M231.1,264.2c5.1-4.6,10.1-9.1,14.7-14.2c13.2-13.7,26.3-26.8,39.5-40.5c6.1-6.6,14.2-6.6,19.8-1.5
		c5.6,5.6,5.1,13.2-1,19.8c-19.8,20.8-39.5,41-59.8,61.8c-8.1,8.1-13.7,8.1-22.8,1c-8.1-7.1-16.2-13.7-24.3-20.8
		c-6.6-6.1-8.1-13.7-3-19.2c5.1-6.1,13.2-6.1,20.3,0C219.4,255,225,259.6,231.1,264.2C231.1,264.2,231.6,264.2,231.1,264.2z"/>
</g>
</svg>
