<?xml version="1.0" encoding="utf-8"?>
<!-- Generator: Adobe Illustrator 24.3.0, SVG Export Plug-In . SVG Version: 6.00 Build 0)  -->
<svg version="1.1" id="레이어_1" xmlns="http://www.w3.org/2000/svg" xmlns:xlink="http://www.w3.org/1999/xlink" x="0px"
	 y="0px" viewBox="0 0 500 500" style="enable-background:new 0 0 500 500;" xml:space="preserve">
<style type="text/css">
	.st0{fill:#FFFFFF;}
	.st1{fill:#9FA0A0;}
	.st2{fill:#595959;}
	.st3{fill:#474747;}
</style>
<circle class="st0" cx="58.5" cy="214.1" r="13.4"/>
<g>
	<g>
		<path class="st2" d="M250.6,106c61.6,0.1,108.6,55.9,99.7,117c-8.1,55.4-36.3,100.6-70.8,142.7c-6.8,8.3-14.3,15.9-21.5,23.8
			c-5,5.5-10.1,6.2-15.5,0.5c-44.9-47.6-82.3-99.4-92.6-166.3C140.3,161.2,187.5,105.9,250.6,106z M205.4,207.1
			c0.1,24.9,20.1,44.8,44.9,44.6c24.8-0.2,44.3-20.2,44.2-45.3c-0.1-25.4-19.2-44.1-45-44C223.9,162.5,205.2,181.4,205.4,207.1z"/>
	</g>
</g>
</svg>
