<svg id="레이어_1" data-name="레이어 1" xmlns="http://www.w3.org/2000/svg" viewBox="0 0 202.73 287.96"><defs><style>.cls-1{fill:#3c5fb5;}</style></defs><path class="cls-1" d="M205.5,0c61.6.1,108.6,55.9,99.7,117-8.1,55.4-36.3,100.6-70.8,142.7-6.8,8.3-14.3,15.9-21.5,23.8-5,5.5-10.1,6.2-15.5.5-44.9-47.6-82.3-99.4-92.6-166.3C95.2,55.2,142.4-.1,205.5,0ZM160.3,101.1a44.51,44.51,0,0,0,44.42,44.6h.48c24.8-.2,44.3-20.2,44.2-45.3-.1-25.4-19.2-44.1-45-44C178.8,56.5,160.1,75.4,160.3,101.1Z" transform="translate(-103.56 0)"/></svg>