<svg id="레이어_1" data-name="레이어 1" xmlns="http://www.w3.org/2000/svg" viewBox="0 0 500 500"><defs><style>.cls-1{fill:#595959;}.cls-2{fill:#3c5fb5;}</style></defs><path class="cls-1" d="M250.6,106c61.6.1,108.6,55.9,99.7,117-8.1,55.4-36.3,100.6-70.8,142.7-6.8,8.3-14.3,15.9-21.5,23.8-5,5.5-10.1,6.2-15.5.5-44.9-47.6-82.3-99.4-92.6-166.3C140.3,161.2,187.5,105.9,250.6,106ZM205.4,207.1a44.51,44.51,0,0,0,44.9,44.6c24.8-.2,44.3-20.2,44.2-45.3-.1-25.4-19.2-44.1-45-44C223.9,162.5,205.2,181.4,205.4,207.1Z"/><path class="cls-2" d="M249.85,103.73c61.6.1,108.6,55.9,99.7,117-8.1,55.4-36.3,100.6-70.8,142.7-6.8,8.3-14.3,15.9-21.5,23.8-5,5.5-10.1,6.2-15.5.5-44.9-47.6-82.3-99.4-92.6-166.3C139.55,158.93,186.75,103.63,249.85,103.73Zm-45.2,101.1a44.51,44.51,0,0,0,44.42,44.6h.48c24.8-.2,44.3-20.2,44.2-45.3-.1-25.4-19.2-44.1-45-44C223.15,160.23,204.45,179.13,204.65,204.83Z"/></svg>