<?xml version="1.0" encoding="utf-8"?>
<!-- Generator: Adobe Illustrator 24.3.0, SVG Export Plug-In . SVG Version: 6.00 Build 0)  -->
<svg version="1.1" id="레이어_1" xmlns="http://www.w3.org/2000/svg" xmlns:xlink="http://www.w3.org/1999/xlink" x="0px"
	 y="0px" viewBox="0 0 500 500" style="enable-background:new 0 0 500 500;" xml:space="preserve">
<style type="text/css">
	.st0{fill:#FFFFFF;}
	.st1{fill:#9FA0A0;}
	.st2{fill:#3C5FB5;}
	.st3{fill:#595959;}
	.st4{fill:#474747;}
</style>
<circle class="st0" cx="58.5" cy="214.1" r="13.4"/>
<g>
	<circle class="st1" cx="-441" cy="-65" r="25.5"/>
	<ellipse transform="matrix(0.4848 -0.8746 0.8746 0.4848 -214.16 -493.552)" class="st1" cx="-526" cy="-65" rx="25.5" ry="25.5"/>
	<circle class="st1" cx="-611" cy="-65" r="25.5"/>
</g>
<g>
	<circle class="st0" cx="-96.5" cy="203.2" r="13"/>
	<path class="st2" d="M-96.5,190.2c-7.2,0-13,5.8-13,13c0,3.5,1.4,6.7,3.7,9.1c0.1-0.1,0.1-0.2,0.2-0.5c1.3-3.4,3.7-5.5,7.3-6.3
		c0.3-0.1,0.6,0,0.8-0.2c-3.3-0.8-4.6-3.8-4.3-6c0.3-2.6,2.6-4.7,5.2-4.7c2.9,0,5.1,1.9,5.5,4.7c0.4,2.7-1.3,5.1-4.5,6.1
		c0.2,0.1,0.3,0.1,0.4,0.1c3.9,0.7,6.5,2.9,7.8,6.5c0,0.1,0.1,0.2,0.1,0.3c2.3-2.3,3.7-5.5,3.7-9.1C-83.5,196-89.3,190.2-96.5,190.2
		z"/>
</g>
<g>
	<g>
		<path class="st3" d="M-53.1,234.8c4.2,0,7.5,3.8,6.8,8c-0.6,3.8-2.5,6.9-4.9,9.8c-0.5,0.6-1,1.1-1.5,1.6c-0.3,0.4-0.7,0.4-1.1,0
			c-3.1-3.3-5.6-6.8-6.4-11.4C-60.7,238.6-57.4,234.8-53.1,234.8z M-56.2,241.7c0,1.7,1.4,3.1,3.1,3.1c1.7,0,3-1.4,3-3.1
			c0-1.7-1.3-3-3.1-3C-54.9,238.7-56.2,240-56.2,241.7z"/>
	</g>
</g>
<path class="st3" d="M-130,221.7c0-0.4,0-0.7,0-1.1c0-0.1,0-0.2,0-0.2c0.4-0.2,0.8-0.4,1-0.7c0.2-0.2,0.2-0.5,0.2-0.8
	c0-0.7-0.3-1-1.2-1.3c0-0.5,0-1,0-1.4c0.4-0.2,0.8-0.4,1-0.7c0.2-0.2,0.2-0.6,0.2-0.8c0-0.7-0.3-0.9-1.2-1.2c0-0.2,0-0.4,0-0.6
	c0-0.5,0-0.9,0.6-1.1c0.2-0.1,0.5-0.4,0.6-0.6c0.1-0.4,0.4-0.5,0.7-0.5c5.4,0,10.9,0,16.3,0c1.1,0,1.8,0.6,1.8,1.8
	c0,0.8,0,1.6,0,2.4c-2.6,0.4-4,1.9-4,4c0,2.2,1.3,3.6,4,4.2c0,0.9,0,1.8,0,2.7c0,0.8-0.7,1.4-1.6,1.4c-1,0-2.1,0-3.1,0
	c-4.4,0-8.9,0-13.3,0c-0.2,0-0.4,0-0.6,0c-0.2-0.6-0.5-1-1.1-1.2c-0.1,0-0.2-0.2-0.2-0.3c0-0.4,0-0.8,0-1.1c0.4-0.2,0.8-0.4,1-0.7
	c0.2-0.2,0.2-0.5,0.2-0.8C-128.7,222.3-129,222.1-130,221.7z M-122.1,219.3c-0.2-0.2-0.4-0.5-0.6-0.7c-0.5-0.5-1.1-0.5-1.5-0.1
	c-0.4,0.4-0.4,1.1,0.1,1.5c0.4,0.4,0.8,0.8,1.2,1.2c0.7,0.7,1.2,0.7,1.8,0c1.1-1.1,2.1-2.3,3.2-3.4c0.2-0.2,0.4-0.5,0.4-0.7
	c0-0.2,0-0.6-0.2-0.7c-0.2-0.2-0.5-0.2-0.8-0.1c-0.3,0.1-0.5,0.3-0.7,0.5C-120.1,217.5-121.1,218.4-122.1,219.3z"/>
<g>
	<path class="st2" d="M500,425.7H192.8C91,425.7,8.5,343.2,8.5,241.4v0C8.5,139.6,91,57.1,192.8,57.1H500V425.7z"/>
	<path class="st0" d="M422.3,188.7c-6.7-2-26.3-0.2-30.6,0.2c-3.3,0.4-23.8,8.1-27.6,7.4c-4.5,0.3-6.4-2-6.2-6.3c0,0,0,0,0,0
		c0,0,0,0,0,0c-0.6-3.2,7.7-25.1,9.4-30.6c1.1-5,4.2-16.6,4.3-17.5c0-0.1,1.3-5.4,0-8c-0.2-0.2-1.7-5.2-4.4-8.6
		c-3.5-0.7-11.1,9.7-10.5,14c-0.1,1.2-2.3,7.3-3.3,9.2c-2,5-6.1,19.6-6.2,21.9c-1.2,1.8-4.2,17-5.4,20.2c0.1,2.1-2.1,9.7-2.4,11.7
		c-0.5,0.1-1,0.2-1.4,0.5c-0.6,0.7-22.9,10.3-34.1,11.9c0,0,0,0,0,0c0,0,0,0,0,0c-2.9-0.9-12-47.9-12-47.9
		c-1.2-1.4-12.5-8.8-16.7-3.8c-0.5,1.1-0.9,2.2-1.2,3.3c-1,3.8,11.2,54.5,10.7,54.5c-9.6,1.4-18.2,6.5-28.5,8
		c0.9-10.4,8.3-47.9,8.1-56.6c-0.1-2.4-7.2-4.3-6.9-1.8c-4,2.5-21.7,61.4-21.8,66c-1.3,1.8-17.5,10.5-24.4,12.7
		c-4-1.3-8.9-18.7-9.2-20c-0.2-0.5-3.1-9-3.8-10.6c-5-11.2-6.9-24.7-21.8-28.2c-4.5,0.5-2.5,3.3-1.9,5.5c1.3,5.9,2.4,11.9,3.9,17.8
		c3.6,14,7.7,27.8,13.7,41c-0.5,0.6-41,20.6-54.4,29.3c-3.8,2.5-3,5.7-1.4,9c0.4,2.3,6.2,9.9,8.8,10.8c6.6,1.2,49.3-26.4,51.9-28.2
		c0.9,2.3,23.9,46.5,23.9,46.6c1.9,2.8,2.8,6.3,5.2,8.7c1.2,0.7,2.5,1.2,3.9,1.3c2.9,0.2,5.7,0.3,8.5-0.4c5.7-1.3,6.1-6.3,7.3-10.7
		c0.9-4.4,0.3-8.8,0.3-13.1c0-1.5,1-42.7,1.1-43.6c0.1-3.1,0.5-6.2,2.1-8.9c1.1-2.3,14.5-7,19.3-8.6c7.1-2.3,13.5-7.2,21.6-6.1
		c0.1,0,8.1,27.5,8.5,31.6c2.3,7.1,10.2,34.8,11.8,38c2.4,4.5,1.6,10.8,7.7,13.1c0.4,0.1,16.5-1.5,17.8-2.7c0,0,0,0,0,0
		c0,0,0-1.7,0-1.7c0-5.4,1.5-11.8,1.5-11.8s5.6-28,5.9-33c0.4-7.5,6.4-46.1,8.4-55.8c-0.1-0.7,61.5-19.2,66.9-18.9
		c4-1.3,7.3-3.5,9.5-7.1C429,191.2,424.1,188.8,422.3,188.7z M222.8,264.6c4.6-2.1,6.3-0.6,5.3,4.2c-1.1,5.6-0.9,11.3-1,17
		c0,0.3-0.6,3-0.2,4.4c-4.9-7.1-13.6-22.8-13.5-22.9C213.4,267.3,220.1,265.9,222.8,264.6z M295.6,233.3c-0.2-0.1-0.3-0.1-0.5-0.2
		c0.2-0.1,0.3-0.1,0.5-0.2h0c0,0,0,0,0,0C295.7,233.1,295.6,233.2,295.6,233.3z M299.7,215.7C299.7,215.7,299.7,215.7,299.7,215.7
		L299.7,215.7L299.7,215.7C299.7,215.7,299.7,215.7,299.7,215.7C299.7,215.7,299.7,215.7,299.7,215.7z M275.6,166.9
		c0.1,0,0.2,0.1,0.2,0.1c-0.1,0.1-0.2,0.2-0.3,0.3C275.6,167.1,275.6,167,275.6,166.9z M307.6,234.4c5.2-0.2,10.1-1.9,15-3.4
		c7.6-2.4,8.3-1.6,7.3,6.6c-1.8,14.2-6.1,27.9-7.2,42.2c-0.3-0.4-1.5-1.3-1.5-1.6c-1-10.2-5.5-19.2-9-28.5
		C310.3,244.4,307,234.4,307.6,234.4z"/>
</g>
<g>
	<circle class="st4" cx="-97.5" cy="291" r="11.2"/>
	<g>
		<path class="st0" d="M-98.2,291.5h-3.3c-0.4,0-0.6-0.1-0.6-0.6v-0.7h3.8v-3.7h1.4v3.7h3.8v1.3h-3.8v3.5c0,0.4-0.2,0.6-0.6,0.6
			h-0.8V291.5z"/>
	</g>
</g>
<g>
	<circle class="st4" cx="-62.7" cy="287.1" r="9"/>
	<g>
		<path class="st0" d="M-62.8,288.4l-2.1,2.7h-1.4l2.9-3.6l-2.7-3.4h1.4l1.9,2.5l1.9-2.5h1.4l-2.7,3.4l2.9,3.6h-1.4L-62.8,288.4z"/>
	</g>
</g>
<g>
	<circle class="st4" cx="-69.3" cy="319.9" r="9"/>
	<path class="st0" d="M-70.5,320.9c0.3-0.3,0.7-0.6,1-1c0.9-0.9,1.8-1.9,2.7-2.8c0.4-0.4,1-0.5,1.3-0.1c0.4,0.4,0.3,0.9-0.1,1.3
		c-1.4,1.4-2.7,2.8-4.1,4.2c-0.5,0.6-0.9,0.6-1.5,0.1c-0.6-0.5-1.1-0.9-1.7-1.4c-0.5-0.4-0.5-0.9-0.2-1.3c0.3-0.4,0.9-0.4,1.4,0
		C-71.3,320.2-71,320.5-70.5,320.9C-70.6,320.9-70.5,320.9-70.5,320.9z"/>
</g>
</svg>
