<?xml version="1.0" encoding="utf-8"?>
<!-- Generator: Adobe Illustrator 24.3.0, SVG Export Plug-In . SVG Version: 6.00 Build 0)  -->
<svg version="1.1" id="레이어_1" xmlns="http://www.w3.org/2000/svg" xmlns:xlink="http://www.w3.org/1999/xlink" x="0px"
	 y="0px" viewBox="0 0 500 500" style="enable-background:new 0 0 500 500;" xml:space="preserve">
<style type="text/css">
	.st0{fill:#FFFFFF;}
	.st1{fill:#9FA0A0;}
	.st2{fill:#3C5FB5;}
	.st3{fill:#595959;}
	.st4{fill:#474747;}
</style>
<circle class="st0" cx="58.5" cy="214.1" r="13.4"/>
<g>
	<circle class="st1" cx="-441" cy="-65" r="25.5"/>
	<ellipse transform="matrix(0.4848 -0.8746 0.8746 0.4848 -214.16 -493.552)" class="st1" cx="-526" cy="-65" rx="25.5" ry="25.5"/>
	<circle class="st1" cx="-611" cy="-65" r="25.5"/>
</g>
<g>
	<circle class="st0" cx="250" cy="250" r="137.6"/>
	<path class="st2" d="M250,112.4c-76,0-137.6,61.6-137.6,137.6c0,37.4,14.9,71.2,39.1,96c0.6-0.9,1.3-2.5,2.3-5
		c14-35.5,39.2-58.1,76.8-66.2c2.7-0.6,5.8-0.2,8.4-2.5c-35.3-8.7-49-39.8-45.8-64c3.6-27.9,27.8-49.5,55.2-49.9
		c30.2-0.4,53.8,19.7,58.6,50c4.5,28.5-13.9,53.6-47.3,64.1c1.8,0.6,3.1,1.1,4.4,1.3c41,7.1,68.6,30.2,82.9,69.2
		c0.5,1.4,1,2.2,1.5,2.8c24.1-24.8,39-58.5,39-95.8C387.6,174,326,112.4,250,112.4z"/>
</g>
<g>
	<g>
		<path class="st3" d="M-53.1,234.8c4.2,0,7.5,3.8,6.8,8c-0.6,3.8-2.5,6.9-4.9,9.8c-0.5,0.6-1,1.1-1.5,1.6c-0.3,0.4-0.7,0.4-1.1,0
			c-3.1-3.3-5.6-6.8-6.4-11.4C-60.7,238.6-57.4,234.8-53.1,234.8z M-56.2,241.7c0,1.7,1.4,3.1,3.1,3.1c1.7,0,3-1.4,3-3.1
			c0-1.7-1.3-3-3.1-3C-54.9,238.7-56.2,240-56.2,241.7z"/>
	</g>
</g>
<path class="st3" d="M-130,221.7c0-0.4,0-0.7,0-1.1c0-0.1,0-0.2,0-0.2c0.4-0.2,0.8-0.4,1-0.7c0.2-0.2,0.2-0.5,0.2-0.8
	c0-0.7-0.3-1-1.2-1.3c0-0.5,0-1,0-1.4c0.4-0.2,0.8-0.4,1-0.7c0.2-0.2,0.2-0.6,0.2-0.8c0-0.7-0.3-0.9-1.2-1.2c0-0.2,0-0.4,0-0.6
	c0-0.5,0-0.9,0.6-1.1c0.2-0.1,0.5-0.4,0.6-0.6c0.1-0.4,0.4-0.5,0.7-0.5c5.4,0,10.9,0,16.3,0c1.1,0,1.8,0.6,1.8,1.8
	c0,0.8,0,1.6,0,2.4c-2.6,0.4-4,1.9-4,4c0,2.2,1.3,3.6,4,4.2c0,0.9,0,1.8,0,2.7c0,0.8-0.7,1.4-1.6,1.4c-1,0-2.1,0-3.1,0
	c-4.4,0-8.9,0-13.3,0c-0.2,0-0.4,0-0.6,0c-0.2-0.6-0.5-1-1.1-1.2c-0.1,0-0.2-0.2-0.2-0.3c0-0.4,0-0.8,0-1.1c0.4-0.2,0.8-0.4,1-0.7
	c0.2-0.2,0.2-0.5,0.2-0.8C-128.7,222.3-129,222.1-130,221.7z M-122.1,219.3c-0.2-0.2-0.4-0.5-0.6-0.7c-0.5-0.5-1.1-0.5-1.5-0.1
	c-0.4,0.4-0.4,1.1,0.1,1.5c0.4,0.4,0.8,0.8,1.2,1.2c0.7,0.7,1.2,0.7,1.8,0c1.1-1.1,2.1-2.3,3.2-3.4c0.2-0.2,0.4-0.5,0.4-0.7
	c0-0.2,0-0.6-0.2-0.7c-0.2-0.2-0.5-0.2-0.8-0.1c-0.3,0.1-0.5,0.3-0.7,0.5C-120.1,217.5-121.1,218.4-122.1,219.3z"/>
<g>
	<circle class="st4" cx="-97.5" cy="291" r="11.2"/>
	<g>
		<path class="st0" d="M-98.2,291.5h-3.3c-0.4,0-0.6-0.1-0.6-0.6v-0.7h3.8v-3.7h1.4v3.7h3.8v1.3h-3.8v3.5c0,0.4-0.2,0.6-0.6,0.6
			h-0.8V291.5z"/>
	</g>
</g>
<g>
	<circle class="st4" cx="-62.7" cy="287.1" r="9"/>
	<g>
		<path class="st0" d="M-62.8,288.4l-2.1,2.7h-1.4l2.9-3.6l-2.7-3.4h1.4l1.9,2.5l1.9-2.5h1.4l-2.7,3.4l2.9,3.6h-1.4L-62.8,288.4z"/>
	</g>
</g>
<g>
	<circle class="st4" cx="-69.3" cy="319.9" r="9"/>
	<path class="st0" d="M-70.5,320.9c0.3-0.3,0.7-0.6,1-1c0.9-0.9,1.8-1.9,2.7-2.8c0.4-0.4,1-0.5,1.3-0.1c0.4,0.4,0.3,0.9-0.1,1.3
		c-1.4,1.4-2.7,2.8-4.1,4.2c-0.5,0.6-0.9,0.6-1.5,0.1c-0.6-0.5-1.1-0.9-1.7-1.4c-0.5-0.4-0.5-0.9-0.2-1.3c0.3-0.4,0.9-0.4,1.4,0
		C-71.3,320.2-71,320.5-70.5,320.9C-70.6,320.9-70.5,320.9-70.5,320.9z"/>
</g>
</svg>
