<?xml version="1.0" encoding="utf-8"?>
<!-- Generator: Adobe Illustrator 24.3.0, SVG Export Plug-In . SVG Version: 6.00 Build 0)  -->
<svg version="1.1" id="레이어_1" xmlns="http://www.w3.org/2000/svg" xmlns:xlink="http://www.w3.org/1999/xlink" x="0px"
	 y="0px" viewBox="0 0 500 500" style="enable-background:new 0 0 500 500;" xml:space="preserve">
<style type="text/css">
	.st0{fill:#FFFFFF;}
	.st1{fill:#9FA0A0;}
	.st2{fill:#595959;}
	.st3{fill:#474747;}
</style>
<circle class="st0" cx="58.5" cy="214.1" r="13.4"/>
<g>
	<circle class="st1" cx="-441" cy="-65" r="25.5"/>
	<ellipse transform="matrix(0.4848 -0.8746 0.8746 0.4848 -214.16 -493.552)" class="st1" cx="-526" cy="-65" rx="25.5" ry="25.5"/>
	<circle class="st1" cx="-611" cy="-65" r="25.5"/>
</g>
<g>
	<g>
		<path class="st2" d="M-53.1,234.8c4.2,0,7.5,3.8,6.8,8c-0.6,3.8-2.5,6.9-4.9,9.8c-0.5,0.6-1,1.1-1.5,1.6c-0.3,0.4-0.7,0.4-1.1,0
			c-3.1-3.3-5.6-6.8-6.4-11.4C-60.7,238.6-57.4,234.8-53.1,234.8z M-56.2,241.7c0,1.7,1.4,3.1,3.1,3.1c1.7,0,3-1.4,3-3.1
			c0-1.7-1.3-3-3.1-3C-54.9,238.7-56.2,240-56.2,241.7z"/>
	</g>
</g>
<path class="st2" d="M103.2,291.8c0-5.8,0-11,0-16.1c0-1.6,0-3.2,0-3.6c5.7-3.5,11.3-5.8,15.1-9.8c2.5-2.8,3.1-8,3.1-12.2
	c0.2-10.4-3.8-14.2-18-18.6c0-7,0-14,0-19.9c5.6-3.7,11.4-6.2,15.2-10.5c2.5-2.8,2.7-8.1,2.7-12.3c-0.1-10.1-4.2-13.8-18.2-17.8
	c0-3.1,0.2-6.3,0-9.6c-0.6-7.3-0.5-13.5,8.9-15.9c3.4-0.9,7.2-5.6,8.2-9.3c1.7-6.3,5.2-7,10.6-7c79.9,0.1,159.8,0.1,239.8,0.1
	c16.8,0,26.2,9.4,26.3,26.3c0.1,11.6,0,23.3,0,34.7c-37.7,6.5-58.5,27.5-59,58.9c-0.5,32.7,19.1,53.4,58.9,61.4
	c0,13.1,0.6,26.4-0.2,39.6c-0.7,12-10.6,20.2-23.4,20.4c-15.2,0.2-30.4,0.1-45.7,0.1c-65.2,0-130.5,0-195.7,0c-3,0-5.9,0-9.3,0
	c-2.3-8.9-7.1-15.3-16.5-17.2c-1.2-0.3-2.6-3.3-2.7-5.1c-0.3-5.7-0.1-11.4-0.1-15.7c5.7-3.6,11.3-5.9,15.1-9.9
	c2.4-2.5,3-7.5,3.1-11.4C121.8,300.7,118.1,296.9,103.2,291.8z M219.4,256.2c-3-3.6-5.3-7-8.2-9.8c-7-6.7-16.4-6.9-22.5-0.7
	c-6.1,6.2-5.9,15.5,0.9,22.5c5.6,5.9,11.5,11.6,17.3,17.3c9.9,9.8,17.6,9.8,27.1-0.3c15.8-16.8,31.6-33.6,47.1-50.7
	c2.8-3.1,5.6-7.1,6.4-11c0.7-3.5-0.3-8.9-2.7-10.9c-2.7-2.3-8.1-2.9-11.8-2c-3.9,0.9-7.6,4-10.8,6.9
	C248.1,229.9,234.4,242.6,219.4,256.2z"/>
<g>
	<circle class="st3" cx="-97.5" cy="291" r="11.2"/>
	<g>
		<path class="st0" d="M-98.2,291.5h-3.3c-0.4,0-0.6-0.1-0.6-0.6v-0.7h3.8v-3.7h1.4v3.7h3.8v1.3h-3.8v3.5c0,0.4-0.2,0.6-0.6,0.6
			h-0.8V291.5z"/>
	</g>
</g>
<g>
	<circle class="st3" cx="-62.7" cy="287.1" r="9"/>
	<g>
		<path class="st0" d="M-62.8,288.4l-2.1,2.7h-1.4l2.9-3.6l-2.7-3.4h1.4l1.9,2.5l1.9-2.5h1.4l-2.7,3.4l2.9,3.6h-1.4L-62.8,288.4z"/>
	</g>
</g>
<g>
	<circle class="st3" cx="-69.3" cy="319.9" r="9"/>
	<path class="st0" d="M-70.5,320.9c0.3-0.3,0.7-0.6,1-1c0.9-0.9,1.8-1.9,2.7-2.8c0.4-0.4,1-0.5,1.3-0.1c0.4,0.4,0.3,0.9-0.1,1.3
		c-1.4,1.4-2.7,2.8-4.1,4.2c-0.5,0.6-0.9,0.6-1.5,0.1c-0.6-0.5-1.1-0.9-1.7-1.4c-0.5-0.4-0.5-0.9-0.2-1.3c0.3-0.4,0.9-0.4,1.4,0
		C-71.3,320.2-71,320.5-70.5,320.9C-70.6,320.9-70.5,320.9-70.5,320.9z"/>
</g>
</svg>
